<?xml version="1.0" encoding="utf-8"?>
<!-- Generator: Adobe Illustrator 24.3.0, SVG Export Plug-In . SVG Version: 6.00 Build 0)  -->
<svg version="1.1" xmlns="http://www.w3.org/2000/svg" x="0px" y="0px"
	 viewBox="0 0 269.35 100.28" style="enable-background:new 0 0 269.35 100.28;" xml:space="preserve">
<style type="text/css">
	.st0{fill:#18507B;}
	.st1{fill:none;stroke:#18507B;stroke-width:7;stroke-miterlimit:10;}
	.st2{fill:none;stroke:#18507B;stroke-width:2;stroke-miterlimit:10;}
</style>
	<g id="Layer_1">
	<g>
		<path class="st0" d="M133.32,66.92l-2.78-7.97h-12.67l-2.78,7.97h-4.99l10.42-29.43c0.62-1.73,1.78-2.93,3.7-2.93
			c1.97,0,3.07,1.2,3.7,2.93l10.42,29.43H133.32z M123.96,40.18l-4.61,14.35h9.7L123.96,40.18z"/>
		<path class="st0" d="M142.82,39.22c-1.49,0-2.69-1.2-2.69-2.69s1.15-2.78,2.69-2.78s2.74,1.2,2.74,2.74
			C145.56,37.97,144.31,39.22,142.82,39.22z M140.81,66.92V42.87h4.13v24.05H140.81z"/>
		<path class="st0" d="M156.17,46.95c-1.39,0-2.74,0.82-2.74,2.3v0.96c0,2.11,1.49,2.5,3.31,2.5h5.38c3.17,0,5.38,2.4,5.38,5.52
			v3.02c0,1.49-0.58,2.93-1.54,4.03c-1.3,1.49-2.45,1.63-4.32,1.63H149.3v-4.13h11.23c2.45,0,2.74-1.34,2.74-3.46
			c0-1.82-0.96-2.5-2.69-2.5h-5.09c-3.26,0-6.14-1.87-6.14-5.38v-3.22c0-1.68,0.82-3.36,2.16-4.37c1.2-0.91,2.59-1.01,4.03-1.01h12
			v4.08H156.17z"/>
		<path class="st0" d="M176.42,46.95v19.97h-4.13V34.37h4.13v8.5h5.23v4.08H176.42z"/>
		<path class="st0" d="M202.92,67.3c-2.59,0-3.02-1.68-3.98-3.65l-10.85-22.71v25.97h-4.46v-27.6c0-2.5,0.96-4.7,3.79-4.7
			c2.59,0,3.12,1.58,4.08,3.6l10.75,22.66V34.9h4.46v28.03C206.71,65.24,205.41,67.3,202.92,67.3z"/>
		<path class="st0" d="M219.28,66.92c-4.37,0-7.49-2.16-7.49-6.82V42c0-4.37,2.64-7.1,7.06-7.1h13.73v4.66h-12.1
			c-2.5,0-4.03,0.96-4.03,3.6v5.47h16.13v4.61h-16.13v5.38c0,2.69,1.54,3.65,4.08,3.65h12.05v4.66H219.28z"/>
		<path class="st0" d="M248.95,39.55v27.36h-4.66V39.55h-7.92V34.9h20.55v4.66H248.95z"/>
	</g>
		<circle class="st1" cx="56.9" cy="50.52" r="38.75"/>
</g>
	<g id="Layer_2">
	<circle class="st0" cx="69.98" cy="73.26" r="6.27"/>
		<circle class="st0" cx="56.9" cy="50.52" r="6.27"/>
		<circle class="st0" cx="56.9" cy="27.1" r="6.27"/>
		<circle class="st0" cx="76.96" cy="50.52" r="6.27"/>
		<line class="st2" x1="69.98" y1="73.26" x2="56.9" y2="50.52"/>
		<line class="st2" x1="76.96" y1="50.52" x2="69.98" y2="73.26"/>
		<line class="st2" x1="56.9" y1="50.52" x2="56.9" y2="27.1"/>
		<line class="st2" x1="76.96" y1="50.52" x2="56.9" y2="27.1"/>
		<circle class="st0" cx="43.83" cy="73.26" r="6.27"/>
		<circle class="st0" cx="36.85" cy="50.52" r="6.27"/>
		<line class="st2" x1="43.83" y1="73.26" x2="56.9" y2="50.52"/>
		<line class="st2" x1="36.85" y1="50.52" x2="43.83" y2="73.26"/>
		<line class="st2" x1="36.85" y1="50.52" x2="56.9" y2="27.1"/>
</g>
</svg>
